<svg id="visual" viewBox="0 0 900 600" width="900" height="600" xmlns="http://www.w3.org/2000/svg" xmlns:xlink="http://www.w3.org/1999/xlink" version="1.1"><path d="M0 277L82 181L164 139L245 91L327 217L409 193L491 91L573 175L655 211L736 157L818 247L900 169L900 0L818 0L736 0L655 0L573 0L491 0L409 0L327 0L245 0L164 0L82 0L0 0Z" fill="#00cc8e"></path><path d="M0 361L82 343L164 271L245 229L327 271L409 283L491 169L573 235L655 331L736 259L818 379L900 289L900 167L818 245L736 155L655 209L573 173L491 89L409 191L327 215L245 89L164 137L82 179L0 275Z" fill="#00b98a"></path><path d="M0 463L82 463L164 487L245 421L327 427L409 481L491 415L573 421L655 463L736 397L818 457L900 415L900 287L818 377L736 257L655 329L573 233L491 167L409 281L327 269L245 227L164 269L82 341L0 359Z" fill="#00a784"></path><path d="M0 535L82 517L164 535L245 499L327 523L409 559L491 517L573 505L655 517L736 505L818 547L900 517L900 413L818 455L736 395L655 461L573 419L491 413L409 479L327 425L245 419L164 485L82 461L0 461Z" fill="#00957c"></path><path d="M0 601L82 601L164 601L245 601L327 601L409 601L491 601L573 601L655 601L736 601L818 601L900 601L900 515L818 545L736 503L655 515L573 503L491 515L409 557L327 521L245 497L164 533L82 515L0 533Z" fill="#038373"></path></svg>